<mxfile host="app.diagrams.net" modified="2023-11-18T12:18:47.026Z" agent="Mozilla/5.0 (Windows NT 10.0; Win64; x64) AppleWebKit/537.36 (KHTML, like Gecko) Chrome/119.0.0.0 Safari/537.36" etag="kC-dyeaKyGeqfNB8lufU" version="22.1.3" type="google">
  <diagram name="Page-1" id="lmEGe6DYKdNhJUgsE13U">
    <mxGraphModel dx="1674" dy="782" grid="1" gridSize="10" guides="1" tooltips="1" connect="1" arrows="1" fold="1" page="1" pageScale="1" pageWidth="850" pageHeight="1100" math="0" shadow="0">
      <root>
        <mxCell id="0" />
        <mxCell id="1" parent="0" />
        <mxCell id="vAP6eo_VVWFND_MKq7w9-1" value="User" style="whiteSpace=wrap;html=1;align=center;" vertex="1" parent="1">
          <mxGeometry x="107.5" y="355" width="100" height="40" as="geometry" />
        </mxCell>
        <mxCell id="vAP6eo_VVWFND_MKq7w9-2" value="Payment Details" style="whiteSpace=wrap;html=1;align=center;" vertex="1" parent="1">
          <mxGeometry x="107.5" y="600" width="100" height="40" as="geometry" />
        </mxCell>
        <mxCell id="vAP6eo_VVWFND_MKq7w9-3" value="Cart" style="whiteSpace=wrap;html=1;align=center;" vertex="1" parent="1">
          <mxGeometry x="107.5" y="110" width="100" height="40" as="geometry" />
        </mxCell>
        <mxCell id="vAP6eo_VVWFND_MKq7w9-4" value="Category" style="whiteSpace=wrap;html=1;align=center;" vertex="1" parent="1">
          <mxGeometry x="390" y="355" width="100" height="40" as="geometry" />
        </mxCell>
        <mxCell id="vAP6eo_VVWFND_MKq7w9-5" value="Product" style="whiteSpace=wrap;html=1;align=center;" vertex="1" parent="1">
          <mxGeometry x="700" y="355" width="100" height="40" as="geometry" />
        </mxCell>
        <mxCell id="vAP6eo_VVWFND_MKq7w9-6" value="Store" style="shape=rhombus;perimeter=rhombusPerimeter;whiteSpace=wrap;html=1;align=center;strokeColor=#FF0000;" vertex="1" parent="1">
          <mxGeometry x="115" y="230" width="85" height="50" as="geometry" />
        </mxCell>
        <mxCell id="vAP6eo_VVWFND_MKq7w9-7" value="Payment" style="shape=rhombus;perimeter=rhombusPerimeter;whiteSpace=wrap;html=1;align=center;strokeColor=#FF0000;" vertex="1" parent="1">
          <mxGeometry x="110" y="480" width="95" height="50" as="geometry" />
        </mxCell>
        <mxCell id="vAP6eo_VVWFND_MKq7w9-8" value="Explore" style="shape=rhombus;perimeter=rhombusPerimeter;whiteSpace=wrap;html=1;align=center;strokeColor=#FF0000;" vertex="1" parent="1">
          <mxGeometry x="260" y="350" width="90" height="50" as="geometry" />
        </mxCell>
        <mxCell id="vAP6eo_VVWFND_MKq7w9-9" value="Consists" style="shape=rhombus;perimeter=rhombusPerimeter;whiteSpace=wrap;html=1;align=center;strokeColor=#FF0000;" vertex="1" parent="1">
          <mxGeometry x="550" y="352.5" width="90" height="45" as="geometry" />
        </mxCell>
        <mxCell id="vAP6eo_VVWFND_MKq7w9-10" value="Order" style="shape=rhombus;perimeter=rhombusPerimeter;whiteSpace=wrap;html=1;align=center;strokeColor=#FF0000;" vertex="1" parent="1">
          <mxGeometry x="440" y="470" width="100" height="50" as="geometry" />
        </mxCell>
        <mxCell id="vAP6eo_VVWFND_MKq7w9-11" value="" style="endArrow=none;html=1;rounded=0;exitX=0.5;exitY=0;exitDx=0;exitDy=0;entryX=0.5;entryY=1;entryDx=0;entryDy=0;" edge="1" parent="1" source="vAP6eo_VVWFND_MKq7w9-6" target="vAP6eo_VVWFND_MKq7w9-3">
          <mxGeometry width="50" height="50" relative="1" as="geometry">
            <mxPoint x="400" y="350" as="sourcePoint" />
            <mxPoint x="450" y="300" as="targetPoint" />
          </mxGeometry>
        </mxCell>
        <mxCell id="vAP6eo_VVWFND_MKq7w9-12" value="" style="endArrow=none;html=1;rounded=0;exitX=0.5;exitY=0;exitDx=0;exitDy=0;entryX=0.5;entryY=1;entryDx=0;entryDy=0;" edge="1" parent="1" source="vAP6eo_VVWFND_MKq7w9-1" target="vAP6eo_VVWFND_MKq7w9-6">
          <mxGeometry width="50" height="50" relative="1" as="geometry">
            <mxPoint x="400" y="350" as="sourcePoint" />
            <mxPoint x="450" y="300" as="targetPoint" />
          </mxGeometry>
        </mxCell>
        <mxCell id="vAP6eo_VVWFND_MKq7w9-16" value="" style="endArrow=none;html=1;rounded=0;exitX=0.5;exitY=0;exitDx=0;exitDy=0;entryX=0.5;entryY=1;entryDx=0;entryDy=0;" edge="1" parent="1" source="vAP6eo_VVWFND_MKq7w9-7" target="vAP6eo_VVWFND_MKq7w9-1">
          <mxGeometry width="50" height="50" relative="1" as="geometry">
            <mxPoint x="400" y="350" as="sourcePoint" />
            <mxPoint x="450" y="300" as="targetPoint" />
          </mxGeometry>
        </mxCell>
        <mxCell id="vAP6eo_VVWFND_MKq7w9-17" value="" style="endArrow=none;html=1;rounded=0;exitX=0.5;exitY=0;exitDx=0;exitDy=0;entryX=0.5;entryY=1;entryDx=0;entryDy=0;" edge="1" parent="1" source="vAP6eo_VVWFND_MKq7w9-2" target="vAP6eo_VVWFND_MKq7w9-7">
          <mxGeometry width="50" height="50" relative="1" as="geometry">
            <mxPoint x="400" y="350" as="sourcePoint" />
            <mxPoint x="160" y="540" as="targetPoint" />
          </mxGeometry>
        </mxCell>
        <mxCell id="vAP6eo_VVWFND_MKq7w9-18" value="" style="endArrow=none;html=1;rounded=0;exitX=1;exitY=0.5;exitDx=0;exitDy=0;entryX=0;entryY=0.5;entryDx=0;entryDy=0;" edge="1" parent="1" source="vAP6eo_VVWFND_MKq7w9-1" target="vAP6eo_VVWFND_MKq7w9-8">
          <mxGeometry width="50" height="50" relative="1" as="geometry">
            <mxPoint x="400" y="350" as="sourcePoint" />
            <mxPoint x="450" y="300" as="targetPoint" />
          </mxGeometry>
        </mxCell>
        <mxCell id="vAP6eo_VVWFND_MKq7w9-19" value="" style="endArrow=none;html=1;rounded=0;exitX=1;exitY=0.5;exitDx=0;exitDy=0;entryX=0;entryY=0.5;entryDx=0;entryDy=0;" edge="1" parent="1" source="vAP6eo_VVWFND_MKq7w9-8" target="vAP6eo_VVWFND_MKq7w9-4">
          <mxGeometry width="50" height="50" relative="1" as="geometry">
            <mxPoint x="400" y="350" as="sourcePoint" />
            <mxPoint x="450" y="300" as="targetPoint" />
          </mxGeometry>
        </mxCell>
        <mxCell id="vAP6eo_VVWFND_MKq7w9-20" value="" style="endArrow=none;html=1;rounded=0;exitX=1;exitY=0.5;exitDx=0;exitDy=0;entryX=0;entryY=0.5;entryDx=0;entryDy=0;" edge="1" parent="1" source="vAP6eo_VVWFND_MKq7w9-4" target="vAP6eo_VVWFND_MKq7w9-9">
          <mxGeometry width="50" height="50" relative="1" as="geometry">
            <mxPoint x="400" y="350" as="sourcePoint" />
            <mxPoint x="450" y="300" as="targetPoint" />
          </mxGeometry>
        </mxCell>
        <mxCell id="vAP6eo_VVWFND_MKq7w9-21" value="" style="endArrow=none;html=1;rounded=0;exitX=1;exitY=0.5;exitDx=0;exitDy=0;entryX=0;entryY=0.5;entryDx=0;entryDy=0;" edge="1" parent="1" source="vAP6eo_VVWFND_MKq7w9-9" target="vAP6eo_VVWFND_MKq7w9-5">
          <mxGeometry width="50" height="50" relative="1" as="geometry">
            <mxPoint x="400" y="350" as="sourcePoint" />
            <mxPoint x="450" y="300" as="targetPoint" />
          </mxGeometry>
        </mxCell>
        <mxCell id="vAP6eo_VVWFND_MKq7w9-22" value="" style="endArrow=none;html=1;rounded=0;exitX=1;exitY=1;exitDx=0;exitDy=0;entryX=0;entryY=0.5;entryDx=0;entryDy=0;" edge="1" parent="1" source="vAP6eo_VVWFND_MKq7w9-1" target="vAP6eo_VVWFND_MKq7w9-10">
          <mxGeometry width="50" height="50" relative="1" as="geometry">
            <mxPoint x="400" y="350" as="sourcePoint" />
            <mxPoint x="450" y="300" as="targetPoint" />
          </mxGeometry>
        </mxCell>
        <mxCell id="vAP6eo_VVWFND_MKq7w9-23" value="" style="endArrow=none;html=1;rounded=0;exitX=1;exitY=0.5;exitDx=0;exitDy=0;entryX=0.5;entryY=1;entryDx=0;entryDy=0;" edge="1" parent="1" source="vAP6eo_VVWFND_MKq7w9-10" target="vAP6eo_VVWFND_MKq7w9-5">
          <mxGeometry width="50" height="50" relative="1" as="geometry">
            <mxPoint x="400" y="350" as="sourcePoint" />
            <mxPoint x="450" y="300" as="targetPoint" />
          </mxGeometry>
        </mxCell>
      </root>
    </mxGraphModel>
  </diagram>
</mxfile>
